v -0.45 -0.45 0.05
v -0.321429 -0.45 0.05
v -0.192857 -0.45 0.05
v -0.0642857 -0.45 0.05
v 0.0642857 -0.45 0.05
v 0.192857 -0.45 0.05
v 0.321429 -0.45 0.05
v 0.45 -0.45 0.05
v -0.45 -0.321429 0.05
v -0.321429 -0.321429 0.05
v -0.192857 -0.321429 0.05
v -0.0642857 -0.321429 0.05
v 0.0642857 -0.321429 0.05
v 0.192857 -0.321429 0.05
v 0.321429 -0.321429 0.05
v 0.45 -0.321429 0.05
v -0.45 -0.192857 0.05
v -0.321429 -0.192857 0.05
v -0.192857 -0.192857 0.05
v -0.0642857 -0.192857 0.05
v 0.0642857 -0.192857 0.05
v 0.192857 -0.192857 0.05
v 0.321429 -0.192857 0.05
v 0.45 -0.192857 0.05
v -0.45 -0.0642857 0.05
v -0.321429 -0.0642857 0.05
v -0.192857 -0.0642857 0.05
v -0.0642857 -0.0642857 0.05
v 0.0642857 -0.0642857 0.05
v 0.192857 -0.0642857 0.05
v 0.321429 -0.0642857 0.05
v 0.45 -0.0642857 0.05
v -0.45 0.0642857 0.05
v -0.321429 0.0642857 0.05
v -0.192857 0.0642857 0.05
v -0.0642857 0.0642857 0.05
v 0.0642857 0.0642857 0.05
v 0.192857 0.0642857 0.05
v 0.321429 0.0642857 0.05
v 0.45 0.0642857 0.05
v -0.45 0.192857 0.05
v -0.321429 0.192857 0.05
v -0.192857 0.192857 0.05
v -0.0642857 0.192857 0.05
v 0.0642857 0.192857 0.05
v 0.192857 0.192857 0.05
v 0.321429 0.192857 0.05
v 0.45 0.192857 0.05
v -0.45 0.321429 0.05
v -0.321429 0.321429 0.05
v -0.192857 0.321429 0.05
v -0.0642857 0.321429 0.05
v 0.0642857 0.321429 0.05
v 0.192857 0.321429 0.05
v 0.321429 0.321429 0.05
v 0.45 0.321429 0.05
v -0.45 0.45 0.05
v -0.321429 0.45 0.05
v -0.192857 0.45 0.05
v -0.0642857 0.45 0.05
v 0.0642857 0.45 0.05
v 0.192857 0.45 0.05
v 0.321429 0.45 0.05
v 0.45 0.45 0.05
f 1 2 9
f 2 10 9
f 9 10 17
f 10 18 17
f 17 18 25
f 18 26 25
f 25 26 33
f 26 34 33
f 33 34 41
f 34 42 41
f 41 42 49
f 42 50 49
f 49 50 57
f 50 58 57
f 2 3 10
f 3 11 10
f 10 11 18
f 11 19 18
f 18 19 26
f 19 27 26
f 26 27 34
f 27 35 34
f 34 35 42
f 35 43 42
f 42 43 50
f 43 51 50
f 50 51 58
f 51 59 58
f 3 4 11
f 4 12 11
f 11 12 19
f 12 20 19
f 19 20 27
f 20 28 27
f 27 28 35
f 28 36 35
f 35 36 43
f 36 44 43
f 43 44 51
f 44 52 51
f 51 52 59
f 52 60 59
f 4 5 12
f 5 13 12
f 12 13 20
f 13 21 20
f 20 21 28
f 21 29 28
f 28 29 36
f 29 37 36
f 36 37 44
f 37 45 44
f 44 45 52
f 45 53 52
f 52 53 60
f 53 61 60
f 5 6 13
f 6 14 13
f 13 14 21
f 14 22 21
f 21 22 29
f 22 30 29
f 29 30 37
f 30 38 37
f 37 38 45
f 38 46 45
f 45 46 53
f 46 54 53
f 53 54 61
f 54 62 61
f 6 7 14
f 7 15 14
f 14 15 22
f 15 23 22
f 22 23 30
f 23 31 30
f 30 31 38
f 31 39 38
f 38 39 46
f 39 47 46
f 46 47 54
f 47 55 54
f 54 55 62
f 55 63 62
f 7 8 15
f 8 16 15
f 15 16 23
f 16 24 23
f 23 24 31
f 24 32 31
f 31 32 39
f 32 40 39
f 39 40 47
f 40 48 47
f 47 48 55
f 48 56 55
f 55 56 63
f 56 64 63
